<svg xmlns="http://www.w3.org/2000/svg" width="266.588" height="34.212" viewBox="0 0 266.588 34.212">
  <g id="black-logo" transform="translate(-106.3 -72.1)">
    <g id="Layer_1-2" transform="translate(106.3 72.1)">
      <path id="Path_23" data-name="Path 23" d="M549.364,172.223v12.532c0,3.613-2.771,6.158-6.726,6.158a9.183,9.183,0,0,1-5.669-1.87l.764-1.361a7.311,7.311,0,0,0,4.719,1.684c3.2,0,5.238-1.762,5.238-4.611V182.21a5.966,5.966,0,0,1-5.346,3.015,6.67,6.67,0,0,1,0-13.325,5.909,5.909,0,0,1,5.346,2.986v-2.663Zm-1.674,6.325a4.981,4.981,0,1,0-5.042,5.13A4.885,4.885,0,0,0,547.69,178.548Z" transform="translate(-493.93 -162.129)"/>
      <path id="Path_24" data-name="Path 24" d="M721.245,177.706v8.547h-1.684v-2.222a6.253,6.253,0,0,1-5.16,2.546c-2.927,0-5.1-1.762-5.1-4.474,0-2.771,2.418-4.67,5.561-4.67a15.628,15.628,0,0,1,4.69.842v-.568c0-2.066-.92-4.318-4.073-4.318a8.793,8.793,0,0,0-4.151,1.253l-.676-1.38a10.781,10.781,0,0,1,4.964-1.361C719.326,171.9,721.245,174.318,721.245,177.706Zm-1.684,4.151v-2.252a15.56,15.56,0,0,0-4.445-.7c-2.33,0-4.151,1.3-4.151,3.123,0,1.87,1.625,3.035,3.72,3.035C716.633,185.059,719.022,184.031,719.561,181.857Z" transform="translate(-650.263 -162.129)"/>
      <path id="Path_25" data-name="Path 25" d="M870.946,153.21a4.254,4.254,0,0,1-2.6.891,3.3,3.3,0,0,1-3.26-3.583v-9.223H862.8v-1.547h2.281V135.9h1.684v3.857h3.525v1.537h-3.525v9.223a1.849,1.849,0,0,0,1.684,2.036,2.418,2.418,0,0,0,1.625-.6Z" transform="translate(-788.734 -129.654)"/>
      <path id="Path_26" data-name="Path 26" d="M979.3,183.267l1.057,1.136a8.466,8.466,0,0,1-5.728,2.174,7.219,7.219,0,0,1-7.03-7.382,7.053,7.053,0,0,1,6.922-7.294c4.151,0,6.648,3.172,6.648,8.009H969.313a5.408,5.408,0,0,0,5.316,5.13A6.833,6.833,0,0,0,979.3,183.267Zm-9.957-4.915h10.143c-.215-2.82-1.958-4.905-4.915-4.905a5.278,5.278,0,0,0-5.228,4.905Z" transform="translate(-883.274 -162.129)"/>
      <path id="Path_27" data-name="Path 27" d="M1122,175.2h1.792l3.72,11.778,3.965-11.778h1.469l3.936,11.778,3.74-11.778h1.792l-4.69,14.03h-1.684l-3.828-11.533-3.848,11.533h-1.684Z" transform="translate(-1022.557 -165.106)"/>
      <path id="Path_28" data-name="Path 28" d="M1365.245,177.706v8.547h-1.684v-2.222a6.253,6.253,0,0,1-5.16,2.546c-2.927,0-5.1-1.762-5.1-4.474,0-2.771,2.418-4.67,5.561-4.67a15.627,15.627,0,0,1,4.689.842v-.568c0-2.066-.92-4.318-4.073-4.318a8.793,8.793,0,0,0-4.151,1.253l-.676-1.38a10.781,10.781,0,0,1,4.964-1.361C1363.316,171.9,1365.245,174.318,1365.245,177.706Zm-1.684,4.151v-2.252a15.56,15.56,0,0,0-4.445-.7c-2.33,0-4.151,1.3-4.151,3.123,0,1.87,1.625,3.035,3.72,3.035C1360.633,185.059,1363.022,184.031,1363.561,181.857Z" transform="translate(-1231.211 -162.129)"/>
      <path id="Path_29" data-name="Path 29" d="M1505.771,193.745l.431-1.488a3.825,3.825,0,0,0,1.733.411,2.384,2.384,0,0,0,2.281-1.3l.842-1.821L1504.9,175.3h1.841l5.179,12.238,4.915-12.238h1.821l-6.462,15.763c-.891,2.222-2.252,3.123-4.21,3.143A5.53,5.53,0,0,1,1505.771,193.745Z" transform="translate(-1367.969 -165.196)"/>
      <path id="Path_30" data-name="Path 30" d="M1691.307,136.735c0,4.318-2.712,7.353-6.462,7.353a5.7,5.7,0,0,1-4.69-2.311v1.978H1676.2V124.8h3.956v6.893a5.776,5.776,0,0,1,4.69-2.281C1688.595,129.411,1691.307,132.446,1691.307,136.735Zm-3.848,0a3.714,3.714,0,0,0-3.74-3.985,3.573,3.573,0,0,0-3.554,3.446v1.087a3.578,3.578,0,0,0,3.554,3.476A3.737,3.737,0,0,0,1687.459,136.735Z" transform="translate(-1522.497 -119.64)" fill="#4d4d4d"/>
      <path id="Path_31" data-name="Path 31" d="M1871.194,175.2v14.03h-3.955v-1.762a5.006,5.006,0,0,1-4.23,2.085,5.119,5.119,0,0,1-5.208-5.424V175.2h3.828v8.087a2.673,2.673,0,0,0,2.663,2.927,2.79,2.79,0,0,0,2.927-2.712l.029.078V175.2Z" transform="translate(-1686.318 -165.106)" fill="#4d4d4d"/>
      <path id="Path_32" data-name="Path 32" d="M2018.4,184.461l1.713-2.741a8.018,8.018,0,0,0,4.69,1.576c1.057,0,1.821-.431,1.821-1.057,0-.871-1.028-1.136-2.467-1.518-2.878-.7-5.1-1.488-5.13-4.259-.029-2.653,2.174-4.562,5.483-4.562a10.221,10.221,0,0,1,5.532,1.733l-1.605,2.82a7.963,7.963,0,0,0-3.936-1.243c-.979,0-1.655.352-1.655.842,0,.764.568.979,2.467,1.488,2.418.627,5.1,1.439,5.1,4.5,0,2.771-2.252,4.533-5.7,4.533A10.346,10.346,0,0,1,2018.4,184.461Z" transform="translate(-1831.194 -162.129)" fill="#4d4d4d"/>
      <path id="Path_33" data-name="Path 33" d="M2166.4,113.915a2.159,2.159,0,1,1,0,.029Zm.157,4.092h3.955v14.03h-3.955Z" transform="translate(-1964.704 -107.913)" fill="#4d4d4d"/>
      <path id="Path_34" data-name="Path 34" d="M2256.113,177.324v8.929h-3.828v-8.087a2.673,2.673,0,0,0-2.663-2.927,2.79,2.79,0,0,0-2.927,2.712l-.029-.078v8.381H2242.7v-14.03h3.965v1.762a5.005,5.005,0,0,1,4.229-2.085A5.116,5.116,0,0,1,2256.113,177.324Z" transform="translate(-2033.534 -162.129)" fill="#4d4d4d"/>
      <path id="Path_35" data-name="Path 35" d="M2416.432,181.828l2.526,2.575a8.58,8.58,0,0,1-5.728,2.173,7.212,7.212,0,0,1-7.431-7.382,7.067,7.067,0,0,1,7.216-7.294c4.4,0,6.971,3.339,6.971,8.626h-10.124a3.4,3.4,0,0,0,3.339,2.546A5.018,5.018,0,0,0,2416.432,181.828Zm-6.511-4.151h6.266a2.934,2.934,0,0,0-3.015-2.281,3.4,3.4,0,0,0-3.251,2.281Z" transform="translate(-2180.665 -162.129)" fill="#4d4d4d"/>
      <path id="Path_36" data-name="Path 36" d="M2567.3,184.461l1.714-2.741a7.992,7.992,0,0,0,4.689,1.576c1.058,0,1.821-.431,1.821-1.057,0-.871-1.028-1.136-2.467-1.518-2.878-.7-5.1-1.488-5.13-4.259-.03-2.653,2.174-4.562,5.483-4.562a10.221,10.221,0,0,1,5.532,1.733l-1.606,2.82a7.964,7.964,0,0,0-3.936-1.243c-.979,0-1.655.352-1.655.842,0,.764.567.979,2.467,1.488,2.418.627,5.1,1.439,5.1,4.5,0,2.771-2.252,4.533-5.7,4.533A10.348,10.348,0,0,1,2567.3,184.461Z" transform="translate(-2326.353 -162.129)" fill="#4d4d4d"/>
      <path id="Path_37" data-name="Path 37" d="M2706.4,184.461l1.713-2.741a8.018,8.018,0,0,0,4.69,1.576c1.057,0,1.821-.431,1.821-1.057,0-.871-1.028-1.136-2.467-1.518-2.879-.7-5.1-1.488-5.13-4.259-.029-2.653,2.174-4.562,5.483-4.562a10.221,10.221,0,0,1,5.532,1.733l-1.6,2.82a7.962,7.962,0,0,0-3.936-1.243c-.979,0-1.655.352-1.655.842,0,.764.568.979,2.467,1.488,2.418.627,5.1,1.439,5.1,4.5,0,2.771-2.252,4.533-5.7,4.533A10.355,10.355,0,0,1,2706.4,184.461Z" transform="translate(-2451.835 -162.129)" fill="#4d4d4d"/>
      <path id="Path_38" data-name="Path 38" d="M130.2,207.114V211.4a27.4,27.4,0,0,1,5.874-.1.285.285,0,0,0,.313-.255v-4.572a1,1,0,0,0-1.008-.979,1.16,1.16,0,0,0-.313.049Z" transform="translate(-127.86 -192.438)" fill="#009245"/>
      <path id="Path_39" data-name="Path 39" d="M217.4,142.056a33.978,33.978,0,0,1,6.168,1.655.546.546,0,0,0,.715-.284.534.534,0,0,0,.049-.215V129.377a1.074,1.074,0,0,0-1.077-1.077,1.094,1.094,0,0,0-.431.088l-5.248,2.281a.292.292,0,0,0-.166.255v11.132Z" transform="translate(-206.523 -122.798)" fill="#009245"/>
      <path id="Path_40" data-name="Path 40" d="M323.537,94.785a38.148,38.148,0,0,1,6.031,4.553.278.278,0,0,0,.392,0,.273.273,0,0,0,.078-.2V73.6a1.5,1.5,0,0,0-1.5-1.5,1.406,1.406,0,0,0-.529.1l-4.435,1.674a.278.278,0,0,0-.176.264v20.4A.291.291,0,0,0,323.537,94.785Z" transform="translate(-302.145 -72.1)" fill="#009245"/>
      <path id="Path_41" data-name="Path 41" d="M108.6,276.987a3.154,3.154,0,0,1,1.263-2.487c-1.116.078-2.232.215-3.339.4a.266.266,0,0,0-.225.274v5.8a16.267,16.267,0,0,1,4.092-1.165A3.212,3.212,0,0,1,108.6,276.987Z" transform="translate(-106.3 -254.684)" fill="#009245"/>
      <path id="Path_42" data-name="Path 42" d="M173.8,288.54A31.784,31.784,0,0,0,158.54,276.35a30.843,30.843,0,0,0-8.7-1.85,3.351,3.351,0,0,1,.392.352l-1.126,1a1.81,1.81,0,1,0-1.41,2.967,1.858,1.858,0,0,0,1.038-.323v-.773h-1.322v-1.165h2.829v2.595a4.165,4.165,0,0,1-.372.343,32.029,32.029,0,0,1,9.3,1.224,31.486,31.486,0,0,1,14.294,8.126.228.228,0,0,0,.313-.02A.257.257,0,0,0,173.8,288.54Z" transform="translate(-142.023 -254.684)" fill="#009245"/>
    </g>
  </g>
</svg>
