<svg xmlns="http://www.w3.org/2000/svg" width="258" height="33.367" viewBox="0 0 258 33.367">
  <g id="white-logo" transform="translate(-106.3 -72.1)">
    <path id="Path_1" data-name="Path 1" d="M548.238,172.2v11.476c0,3.308-2.537,5.64-6.16,5.64a8.41,8.41,0,0,1-5.191-1.712l.7-1.246a6.7,6.7,0,0,0,4.322,1.542c2.932,0,4.8-1.614,4.8-4.223v-2.331a5.464,5.464,0,0,1-4.9,2.762,6.109,6.109,0,0,1,0-12.2,5.411,5.411,0,0,1,4.9,2.735V172.2Zm-1.533,5.792a4.561,4.561,0,1,0-4.617,4.7A4.473,4.473,0,0,0,546.705,177.988Z" transform="translate(-388.537 -89.543)" fill="#fff"/>
    <path id="Path_2" data-name="Path 2" d="M720.238,177.217v7.827H718.7v-2.035a5.726,5.726,0,0,1-4.725,2.331c-2.681,0-4.671-1.614-4.671-4.1,0-2.537,2.215-4.277,5.093-4.277a14.311,14.311,0,0,1,4.295.771v-.52c0-1.892-.843-3.954-3.73-3.954a8.053,8.053,0,0,0-3.8,1.148l-.619-1.264a9.873,9.873,0,0,1,4.546-1.246C718.481,171.9,720.238,174.115,720.238,177.217Zm-1.542,3.8v-2.062a14.248,14.248,0,0,0-4.071-.646c-2.134,0-3.8,1.192-3.8,2.86,0,1.712,1.488,2.779,3.407,2.779C716.015,183.95,718.2,183.009,718.7,181.018Z" transform="translate(-545.257 -89.834)" fill="#fff"/>
    <path id="Path_3" data-name="Path 3" d="M870.26,151.752a3.9,3.9,0,0,1-2.385.816,3.025,3.025,0,0,1-2.986-3.282V140.84H862.8v-1.417h2.089V135.9h1.542v3.533h3.228v1.408h-3.228v8.446a1.693,1.693,0,0,0,1.542,1.865,2.215,2.215,0,0,0,1.488-.547Z" transform="translate(-684.126 -57.285)" fill="#fff"/>
    <path id="Path_4" data-name="Path 4" d="M978.314,182.309l.968,1.04a7.753,7.753,0,0,1-5.245,1.99,6.611,6.611,0,0,1-6.438-6.76,6.459,6.459,0,0,1,6.339-6.68c3.8,0,6.088,2.9,6.088,7.334H969.169a4.953,4.953,0,0,0,4.869,4.7A6.256,6.256,0,0,0,978.314,182.309Zm-9.118-4.5h9.289c-.2-2.582-1.793-4.492-4.5-4.492a4.834,4.834,0,0,0-4.788,4.492Z" transform="translate(-778.789 -89.834)" fill="#fff"/>
    <path id="Path_5" data-name="Path 5" d="M1122,175.2h1.641l3.407,10.786,3.631-10.786h1.345l3.6,10.786,3.425-10.786h1.641l-4.294,12.848h-1.542l-3.506-10.562-3.523,10.562h-1.542Z" transform="translate(-918.224 -92.838)" fill="#fff"/>
    <path id="Path_6" data-name="Path 6" d="M1364.239,177.217v7.827H1362.7v-2.035a5.726,5.726,0,0,1-4.725,2.331c-2.681,0-4.671-1.614-4.671-4.1,0-2.537,2.214-4.277,5.093-4.277a14.315,14.315,0,0,1,4.295.771v-.52c0-1.892-.843-3.954-3.73-3.954a8.052,8.052,0,0,0-3.8,1.148l-.619-1.264a9.872,9.872,0,0,1,4.546-1.246C1362.472,171.9,1364.239,174.115,1364.239,177.217Zm-1.542,3.8v-2.062a14.25,14.25,0,0,0-4.071-.646c-2.134,0-3.8,1.192-3.8,2.86,0,1.712,1.489,2.779,3.407,2.779C1360.016,183.95,1362.2,183.009,1362.7,181.018Z" transform="translate(-1127.588 -89.834)" fill="#fff"/>
    <path id="Path_7" data-name="Path 7" d="M1505.7,192.192l.395-1.363a3.5,3.5,0,0,0,1.587.377,2.183,2.183,0,0,0,2.089-1.192l.771-1.668L1504.9,175.3h1.686l4.743,11.207,4.5-11.207h1.668l-5.917,14.435c-.816,2.035-2.062,2.86-3.856,2.878A5.064,5.064,0,0,1,1505.7,192.192Z" transform="translate(-1264.609 -92.603)" fill="#fff"/>
    <path id="Path_8" data-name="Path 8" d="M1690.034,135.729c0,3.954-2.484,6.733-5.918,6.733a5.215,5.215,0,0,1-4.294-2.116v1.811H1676.2V124.8h3.622v6.312a5.289,5.289,0,0,1,4.294-2.089C1687.551,129.023,1690.034,131.8,1690.034,135.729Zm-3.524,0a3.4,3.4,0,0,0-3.425-3.649,3.272,3.272,0,0,0-3.255,3.156v1a3.277,3.277,0,0,0,3.255,3.183A3.422,3.422,0,0,0,1686.511,135.729Z" transform="translate(-1419.446 -47.271)" fill="#fff"/>
    <path id="Path_9" data-name="Path 9" d="M1870.065,175.2v12.848h-3.622v-1.614a4.583,4.583,0,0,1-3.873,1.91,4.688,4.688,0,0,1-4.77-4.967V175.2h3.505v7.406a2.448,2.448,0,0,0,2.439,2.681,2.555,2.555,0,0,0,2.681-2.484l.027.072V175.2Z" transform="translate(-1583.716 -92.821)" fill="#fff"/>
    <path id="Path_10" data-name="Path 10" d="M2018.4,183.4l1.569-2.51a7.342,7.342,0,0,0,4.294,1.443c.968,0,1.668-.395,1.668-.968,0-.8-.941-1.04-2.26-1.39-2.636-.646-4.671-1.363-4.7-3.9-.027-2.43,1.99-4.178,5.021-4.178a9.361,9.361,0,0,1,5.066,1.587l-1.47,2.582a7.292,7.292,0,0,0-3.6-1.139c-.9,0-1.515.323-1.515.771,0,.7.52.9,2.259,1.363,2.215.574,4.671,1.318,4.671,4.124,0,2.537-2.062,4.151-5.218,4.151A9.476,9.476,0,0,1,2018.4,183.4Z" transform="translate(-1728.995 -89.834)" fill="#fff"/>
    <path id="Path_11" data-name="Path 11" d="M2166.4,113.737a1.977,1.977,0,1,1,0,.027Zm.144,3.748h3.622v12.848h-3.622Z" transform="translate(-1863.193 -35.141)" fill="#fff"/>
    <path id="Path_12" data-name="Path 12" d="M2254.983,176.867v8.177h-3.505v-7.406a2.448,2.448,0,0,0-2.439-2.681,2.555,2.555,0,0,0-2.681,2.484l-.027-.072v7.675H2242.7V172.2h3.631v1.614a4.584,4.584,0,0,1,3.873-1.91A4.685,4.685,0,0,1,2254.983,176.867Z" transform="translate(-1931.743 -89.85)" fill="#fff"/>
    <path id="Path_13" data-name="Path 13" d="M2415.537,180.991l2.314,2.358a7.858,7.858,0,0,1-5.245,1.99,6.6,6.6,0,0,1-6.8-6.76,6.471,6.471,0,0,1,6.607-6.68c4.026,0,6.384,3.057,6.384,7.9h-9.271a3.118,3.118,0,0,0,3.058,2.331A4.594,4.594,0,0,0,2415.537,180.991Zm-5.962-3.8h5.738a2.688,2.688,0,0,0-2.762-2.089,3.11,3.11,0,0,0-2.977,2.089Z" transform="translate(-2079.462 -89.834)" fill="#fff"/>
    <path id="Path_14" data-name="Path 14" d="M2567.3,183.4l1.569-2.51a7.319,7.319,0,0,0,4.294,1.443c.969,0,1.668-.395,1.668-.968,0-.8-.942-1.04-2.259-1.39-2.636-.646-4.671-1.363-4.7-3.9-.028-2.43,1.99-4.178,5.021-4.178a9.359,9.359,0,0,1,5.065,1.587l-1.47,2.582a7.3,7.3,0,0,0-3.6-1.139c-.9,0-1.515.323-1.515.771,0,.7.52.9,2.259,1.363,2.215.574,4.671,1.318,4.671,4.124,0,2.537-2.062,4.151-5.219,4.151A9.477,9.477,0,0,1,2567.3,183.4Z" transform="translate(-2226.482 -89.834)" fill="#fff"/>
    <path id="Path_15" data-name="Path 15" d="M2706.4,183.4l1.569-2.51a7.342,7.342,0,0,0,4.295,1.443c.968,0,1.667-.395,1.667-.968,0-.8-.942-1.04-2.259-1.39-2.636-.646-4.672-1.363-4.7-3.9-.027-2.43,1.991-4.178,5.021-4.178a9.359,9.359,0,0,1,5.066,1.587l-1.461,2.582a7.292,7.292,0,0,0-3.6-1.139c-.9,0-1.515.323-1.515.771,0,.7.52.9,2.26,1.363,2.215.574,4.672,1.318,4.672,4.124,0,2.537-2.062,4.151-5.219,4.151A9.483,9.483,0,0,1,2706.4,183.4Z" transform="translate(-2353.11 -89.834)" fill="#fff"/>
    <path id="Path_16" data-name="Path 16" d="M130.2,206.978V210.9a25.1,25.1,0,0,1,5.38-.09.261.261,0,0,0,.287-.233V206.4a.911.911,0,0,0-.924-.9,1.063,1.063,0,0,0-.287.045Z" transform="translate(-21.757 -120.499)" fill="#009245"/>
    <path id="Path_17" data-name="Path 17" d="M217.4,140.9a31.115,31.115,0,0,1,5.649,1.515.5.5,0,0,0,.654-.26.488.488,0,0,0,.045-.2V129.286a.983.983,0,0,0-.986-.986,1,1,0,0,0-.394.081l-4.806,2.089a.267.267,0,0,0-.152.233L217.4,140.9Z" transform="translate(-101.139 -50.564)" fill="#009245"/>
    <path id="Path_18" data-name="Path 18" d="M323.526,92.874a34.936,34.936,0,0,1,5.523,4.169.254.254,0,0,0,.359,0,.251.251,0,0,0,.072-.179V73.472a1.372,1.372,0,0,0-1.372-1.372,1.288,1.288,0,0,0-.484.09l-4.062,1.533a.254.254,0,0,0-.161.242V92.65A.266.266,0,0,0,323.526,92.874Z" transform="translate(-197.635 0)" fill="#009245"/>
    <path id="Path_19" data-name="Path 19" d="M108.407,276.777a2.888,2.888,0,0,1,1.157-2.277c-1.022.072-2.044.2-3.057.368a.244.244,0,0,0-.206.251v5.308a14.9,14.9,0,0,1,3.748-1.067A2.941,2.941,0,0,1,108.407,276.777Z" transform="translate(0 -182.798)" fill="#009245"/>
    <path id="Path_20" data-name="Path 20" d="M171.453,287.357a29.106,29.106,0,0,0-13.978-11.163A28.245,28.245,0,0,0,149.5,274.5a3.059,3.059,0,0,1,.359.323l-1.031.914a1.657,1.657,0,1,0-1.291,2.717,1.7,1.7,0,0,0,.95-.3v-.708h-1.21v-1.067h2.591v2.376a3.806,3.806,0,0,1-.341.314,29.33,29.33,0,0,1,8.518,1.121,28.833,28.833,0,0,1,13.09,7.442.208.208,0,0,0,.287-.018A.235.235,0,0,0,171.453,287.357Z" transform="translate(-36.05 -182.217)" fill="#009245"/>
  </g>
</svg>
